Storyline


The story of the life of an impoverished Indian teen Jamal Malik, 
who becomes a contestant on the Hindi version of "Who Wants to be A Millionaire?", 
wins, and is then suspected of cheating.


Cast

Anil Kapoor ... Prem Kumar
Mia Drake Inderbitzin ... Adele
Dev Patel ... Jamal Malik
Saurabh Shukla ... Sergeant Srinivas
Rajendranath Zutshi ... Director (as Raj Zutshi)
Jeneva Talwar ... Vision Mixer
Freida Pinto ... Latika
Irrfan Khan ... Police Inspector
Ayush Mahesh Khedekar ... Youngest Jamal
Mahesh Manjrekar ... Javed
Sanchita Choudhary ... Jamal's mother




Rip Information

General

Format                                   : Matroska
Format version                           : Version 4 / Version 2
File size                                : 343 MiB
Duration                                 : 2h 0mn
Overall bit rate                         : 398 Kbps
Movie name                               : Slumdog Millionaire 2009 {BRRip} {x264} {Hindi} {rdx004} {DMRG}
Encoded date                             : UTC 2013-02-26 12:09:08



Video


Format                                   : AVC
Format/Info                              : Advanced Video Codec
Format profile                           : High@L2.1
Format settings, CABAC                   : Yes
Format settings, ReFrames                : 6 frames
Codec ID                                 : V_MPEG4/ISO/AVC
Duration                                 : 2h 0mn
Bit rate                                 : 300 Kbps
Width                                    : 592 pixels
Height                                   : 240 pixels
Display aspect ratio                     : 16:9
Original display aspect ratio            : 16:9
Frame rate mode                          : Constant
Frame rate                               : 23.976 fps
Color space                              : YUV
Chroma subsampling                       : 4:2:0
Bit depth                                : 8 bits
Scan type                                : Progressive
Bits/(Pixel*Frame)                       : 0.088
Stream size                              : 254 MiB (74%)
Title                                    : Slumdog Millionaire 2009 {BRRip} {x264} {Hindi} {rdx004} {DMRG}
Writing library                          : x264 core 112
Language                                 : Hindi
Default                                  : Yes
Forced                                   : No
Color primaries                          : BT.601 NTSC
Transfer characteristics                 : BT.709
Matrix coefficients                      : BT.601






Audio

ID                                       : 2
Format                                   : AC-3
Format/Info                              : Audio Coding 3
Mode extension                           : CM (complete main)
Format settings, Endianness              : Big
Codec ID                                 : A_AC3
Duration                                 : 2h 0mn
Bit rate mode                            : Constant
Bit rate                                 : 96.0 Kbps
Channel(s)                               : 2 channels
Channel positions                        : Front: L R
Sampling rate                            : 44.1 KHz
Bit depth                                : 16 bits
Compression mode                         : Lossy
Stream size                              : 82.8 MiB (24%)
Title                                    : Slumdog Millionaire 2009 {BRRip} {x264} {Hindi} {rdx004} {DMRG}
Language                                 : Hindi
Default                                  : Yes
Forced                                   : No




Subtitle


ID                                       : 3
Format                                   : UTF-8
Codec ID                                 : S_TEXT/UTF8
Codec ID/Info                            : UTF-8 Plain Text
Default                                  : Yes
Forced                                   : No


